# xmcd
# 
# Track frame offsets:
#     150
#     13270
#     29745
#     48047
#     62697
#     75742
#     92045
#     116245
#     132245
#     149740
#     171347
#     184555
#     201105
#     219507
#     234265
#     250627
#     274867
#     290897
#     308417
# 
# Disc length: 4398
# 
# Revision: 2
# Processed by: cddbd v1.5.2PL0 Copyright (c) Steve Scherf et al.
# Submitted via: fre:ac v1.1beta1pre4
# 
DISCID=19112c13
DTITLE=美少女戦士セーラームーン - Memorial Song Box ( Disc．1 )
DYEAR=1998
DGENRE=Anime
TTITLE0=DALI／ムーンライト伝説 (DALI)
TTITLE1=高松美砂絵 (さくらさくら)／Heart Moving
TTITLE2=橋本 潮，アップルパイ／プリンセス・ムーン
TTITLE3=石田よう子／乙女のポリシー
TTITLE4=ムーンリップス／ムーンライト伝説 (ムーンリップス)
TTITLE5=三石琴乃，久川 綾，富沢美智恵，篠原恵美，深見梨加／タキシード・ミラージュ
TTITLE6=藤谷美和子／私たちになりたくて
TTITLE7=Meu／.“らしく”いきましょ
TTITLE8=花沢加絵／セーラースターソング
TTITLE9=観月ありさ／風も空もきっと・・・
TTITLE10=ムーンライト伝説(オリジナル・カラオケ)
TTITLE11=Heart Moving(オリジナル・カラオケ)
TTITLE12=プリンセス・ムーン(オリジナル・カラオケ)
TTITLE13=乙女のポリシー(オリジナル・カラオケ)
TTITLE14=タキシード・ミラージュ(オリジナル・カラオケ)
TTITLE15=私たちになりたくて(オリジナル・カラオケ)
TTITLE16=“らしく”いきましょ(オリジナル・カラオケ)
TTITLE17=セーラースターソング(オリジナル・カラオケ)
TTITLE18=風も空もきっと…(オリジナル・カラオケ)
EXTD=
EXTT0=
EXTT1=
EXTT2=
EXTT3=
EXTT4=
EXTT5=
EXTT6=
EXTT7=
EXTT8=
EXTT9=
EXTT10=
EXTT11=
EXTT12=
EXTT13=
EXTT14=
EXTT15=
EXTT16=
EXTT17=
EXTT18=
PLAYORDER=
